<?xml version="1.0" encoding="UTF-8" standalone="no"?>
<svg
   xmlns:svg="http://www.w3.org/2000/svg"
   xmlns="http://www.w3.org/2000/svg"
   height="1024"
   width="1024"
   version="1.1">
  <style>path{fill:#e5ab38;fill-opacity:1;stroke-width:1.53406215}</style>
  <path
     d="M 347.45445,795.89003 C 294.2992,781.64653 208.87111,758.80213 157.61426,745.12471 L 64.419984,720.25669 V 504.98426 c 0,-123.62398 0.577212,-215.27241 1.355811,-215.27241 0.745695,0 86.771745,22.78082 191.168995,50.62405 104.39725,27.84323 190.07812,50.62405 190.40196,50.62405 0.32383,0 0.58878,96.99108 0.58878,215.53574 0,171.47096 -0.39203,215.51079 -1.91758,215.4137 -1.05467,-0.0672 -45.40824,-11.77583 -98.5635,-26.01936 z" />
  <path
     d="m 512.36614,606.55481 v -215.4766 l 5.75273,-1.51144 c 21.43613,-5.632 116.70947,-31.06253 118.87583,-31.73055 2.51036,-0.77409 2.69448,3.85926 3.06813,77.20743 l 0.3975,78.03095 63.66358,-16.97598 63.66358,-16.97599 0.4093,-78.21423 0.40932,-78.21422 62.48723,-16.53657 c 34.36799,-9.09512 63.00499,-16.51615 63.63779,-16.49117 0.6328,0.025 1.15055,96.92178 1.15055,215.32623 V 720.27349 L 705.0859,771.15245 c -104.93768,27.98343 -191.22868,50.87897 -191.75777,50.87897 -0.5291,0 -0.96199,-96.96448 -0.96199,-215.47661 z" />
  <path
     d="M 273.43382,279.31554 C 161.00508,249.26152 69.53662,224.20614 70.170591,223.63693 c 0.63397,-0.56922 35.497859,-10.16691 77.475309,-21.32821 l 76.32264,-20.29327 206.31891,54.99875 c 128.27949,34.19566 205.30702,55.41339 203.64371,56.09497 -3.91753,1.60531 -153.10789,41.11205 -154.71706,40.97026 -0.7504,-0.0661 -93.35152,-24.70988 -205.78028,-54.76389 z" />
  <path
     d="M 561.83964,202.53413 C 449.41206,172.46824 357.43208,147.51071 357.43969,147.07295 c 0.008,-0.43775 27.62396,-8.12566 61.36966,-17.08424 l 61.35583,-16.28833 204.40662,54.451 c 112.42362,29.94805 204.93196,54.92328 205.57404,55.50051 0.9752,0.87669 -120.80973,34.22594 -123.12538,33.71631 -0.42187,-0.0928 -92.75324,-24.76817 -205.18082,-54.83407 z" />
</svg>
